<svg id="Layer_1" data-name="Layer 1" xmlns="http://www.w3.org/2000/svg" viewBox="0 0 239.19 16.64"><defs><style>.cls-1,.cls-10,.cls-2,.cls-3,.cls-4,.cls-5,.cls-6,.cls-7,.cls-8,.cls-9{fill:none;stroke:#1dd1a1;stroke-linecap:round;stroke-linejoin:round;stroke-width:2.83px;}.cls-1{opacity:0.2;}.cls-2{opacity:0.1;}.cls-3{opacity:0.4;}.cls-4{opacity:0.3;}.cls-5{opacity:0.6;}.cls-6{opacity:0.5;}.cls-7{opacity:0.8;}.cls-8{opacity:0.7;}.cls-9{opacity:0.9;}</style></defs><line class="cls-1" x1="27.71" y1="15.02" x2="14.34" y2="1.62"/><line class="cls-2" x1="1.38" y1="15.02" x2="14.34" y2="1.62"/><line class="cls-3" x1="54.03" y1="15.02" x2="40.67" y2="1.62"/><line class="cls-4" x1="27.71" y1="15.02" x2="40.67" y2="1.62"/><line class="cls-5" x1="80.36" y1="15.02" x2="66.99" y2="1.62"/><line class="cls-6" x1="54.03" y1="15.02" x2="66.99" y2="1.62"/><line class="cls-7" x1="106.69" y1="15.02" x2="93.32" y2="1.62"/><line class="cls-8" x1="80.36" y1="15.02" x2="93.32" y2="1.62"/><line class="cls-9" x1="106.69" y1="15.02" x2="119.65" y2="1.62"/><line class="cls-1" x1="211.59" y1="15.02" x2="224.95" y2="1.62"/><line class="cls-2" x1="237.91" y1="15.02" x2="224.95" y2="1.62"/><line class="cls-3" x1="185.26" y1="15.02" x2="198.63" y2="1.62"/><line class="cls-4" x1="211.59" y1="15.02" x2="198.63" y2="1.62"/><line class="cls-5" x1="158.93" y1="15.02" x2="172.3" y2="1.62"/><line class="cls-6" x1="185.26" y1="15.02" x2="172.3" y2="1.62"/><line class="cls-7" x1="132.61" y1="15.02" x2="145.97" y2="1.62"/><line class="cls-8" x1="158.93" y1="15.02" x2="145.97" y2="1.62"/><line class="cls-10" x1="132.61" y1="15.02" x2="119.65" y2="1.62"/></svg>