<svg id="Layer_1" data-name="Layer 1" xmlns="http://www.w3.org/2000/svg" viewBox="0 0 1180.67 800"><defs><style>.cls-1{fill:none;stroke:#1dd1a1;stroke-linecap:round;stroke-linejoin:round;stroke-width:11.34px;opacity:0.1;}</style></defs><line class="cls-1" x1="314.68" y1="608.95" x2="193.07" y2="738.29"/><line class="cls-1" x1="190.85" y1="36.34" x2="312.46" y2="165.68"/><line class="cls-1" x1="529.53" y1="36.34" x2="651.14" y2="165.68"/><line class="cls-1" x1="820.48" y1="36.34" x2="698.87" y2="165.68"/><line class="cls-1" x1="1161.39" y1="36.34" x2="1039.77" y2="165.68"/><line class="cls-1" x1="868.21" y1="36.34" x2="989.82" y2="165.68"/><line class="cls-1" x1="701.09" y1="228.42" x2="822.71" y2="357.76"/><line class="cls-1" x1="992.05" y1="228.42" x2="870.43" y2="357.76"/><line class="cls-1" x1="1039.77" y1="228.42" x2="1161.39" y2="357.76"/><line class="cls-1" x1="1039.77" y1="608.95" x2="1161.39" y2="738.29"/><line class="cls-1" x1="820.48" y1="416.86" x2="698.87" y2="546.2"/><line class="cls-1" x1="1161.39" y1="416.86" x2="1039.77" y2="546.2"/><line class="cls-1" x1="868.21" y1="416.86" x2="989.82" y2="546.2"/><line class="cls-1" x1="362.41" y1="608.95" x2="484.02" y2="738.29"/><line class="cls-1" x1="701.09" y1="608.95" x2="822.71" y2="738.29"/><line class="cls-1" x1="992.05" y1="608.95" x2="870.43" y2="738.29"/><line class="cls-1" x1="653.37" y1="608.95" x2="531.75" y2="738.29"/><line class="cls-1" x1="481.8" y1="36.34" x2="360.19" y2="165.68"/></svg>