<svg id="Layer_1" data-name="Layer 1" xmlns="http://www.w3.org/2000/svg" xmlns:xlink="http://www.w3.org/1999/xlink" viewBox="0 0 556.65 421.59"><defs><style>.cls-1{fill:#fff;}.cls-2{mask:url(#mask);}.cls-3,.cls-4,.cls-5,.cls-6{fill:none;stroke-miterlimit:10;stroke-width:107.72px;}.cls-3{stroke:#d6de27;}.cls-4{stroke:#96c73d;}.cls-5{stroke:#428940;}.cls-6{stroke:#1e3e20;}.cls-7{fill:#1e3e20;}.cls-8{fill:#428940;}.cls-9{fill:#95c73d;}.cls-10{fill:#d6de26;}</style><mask id="mask" x="-36.39" y="-7.13" width="627.94" height="504.41" maskUnits="userSpaceOnUse"><path class="cls-1" d="M377.5,404.39H66.38c-26.06,0-43.63-28.11-33.3-53.45L141.38,84.46c32.1-78.88,138.46-77.57,168.78,2.1l25.06,65.82,75.95,199.4C420.76,377,403.2,404.39,377.5,404.39Z"/><path class="cls-1" d="M480.55,404.39h-103c25.7,0,43.26-27.43,33.67-52.61l-75.95-199.4c35.37-14.42,78.61-9,95.25,33.88l75.15,182C512.76,385.56,499.7,404.39,480.55,404.39Z"/></mask></defs><g class="cls-2"><path class="cls-3" d="M335.08,112c-69.27,0-69.27-49.87-138.53-49.87S127.28,112,58,112"/><path class="cls-3" d="M552.37,86.4c-55.11,0-55.11-39.67-110.21-39.67S387.05,86.4,331.94,86.4"/><path class="cls-4" d="M376.76,219.31c-79.56,1.33-80.52-55.95-160.09-54.61S138.06,223.31,58.5,224.64"/><path class="cls-4" d="M572.59,273.57c-62-23.32-46.28-65.1-108.27-88.42s-77.71,18.46-139.7-4.86"/><path class="cls-5" d="M348.36,303.38c-76.5,0-76.5-55.08-153-55.08s-76.5,55.08-153,55.08"/><path class="cls-5" d="M510.41,303.3c-47.13,0-47.13-33.94-94.27-33.94S369,303.3,321.87,303.3"/><path class="cls-6" d="M398.89,413.85c-108.49-2.63-106.6-80.72-215.1-83.34S73.4,406-35.09,403.36"/><path class="cls-6" d="M398.89,443.43c-108.49-2.62-106.6-80.71-215.1-83.34S73.4,435.57-35.09,433"/><path class="cls-6" d="M547.29,398.67c-50.52.47-50.86-35.91-101.38-35.44s-50.19,36.84-100.71,37.31"/></g><path class="cls-7" d="M380.13,329.74s13.4-13.15,36-17,17.13,91.49,17.13,91.49H362.6Z"/><path class="cls-8" d="M354.72,231.58s20.82-10.76,24.77-10.05,30,92.68,30,92.68-20.87,6-23.86,9.37C383.63,325.8,354.72,231.58,354.72,231.58Z"/><polygon class="cls-9" points="333.93 153.27 338.11 152.55 371.09 222.5 358.6 227.5 333.93 153.27"/><polygon class="cls-9" points="335.21 152.55 314.14 138.77 316.54 149.23 334.7 154.03 335.21 152.55"/><polygon class="cls-10" points="334.96 151.68 335.35 152.7 334.41 152.03 334.96 151.68"/><path class="cls-9" d="M335.31,152.34l-.09,0a3.2,3.2,0,0,1-.85-.38c-.39-.25-.16.42-.16.42l.89.58.54-.32Z"/></svg>